<svg xmlns="http://www.w3.org/2000/svg" width="24" height="24" viewBox="0 0 24 24">
    <path fill="#BEBEBE" fill-rule="nonzero" d="M3.516 24h7.828v-8.531H8.53v-2.813h2.813V9.141a3.52 3.52 0 0 1 3.515-3.516h3.516v2.813h-2.813c-.775 0-1.406.63-1.406 1.406v2.812h4.092l-.469 2.813h-3.623V24h6.328A3.52 3.52 0 0 0 24 20.484V3.516A3.52 3.52 0 0 0 20.484 0H3.516A3.52 3.52 0 0 0 0 3.516v16.968A3.52 3.52 0 0 0 3.516 24zM1.406 3.516c0-1.163.947-2.11 2.11-2.11h16.968c1.163 0 2.11.947 2.11 2.11v16.968c0 1.163-.947 2.11-2.11 2.11h-4.922v-5.719h3.409l.937-5.625h-4.346V9.844h4.22V4.219h-4.923A4.927 4.927 0 0 0 9.938 9.14v2.109H7.124v5.625h2.813v5.719H3.516a2.112 2.112 0 0 1-2.11-2.11V3.516z"/>
</svg>
