<svg xmlns="http://www.w3.org/2000/svg" width="24" height="24" viewBox="0 0 24 24">
    <path fill="#BEBEBE" fill-rule="nonzero" d="M12 0C5.405 0 0 5.452 0 12.047 0 18.604 5.355 24 12 24c6.636 0 12-5.388 12-11.953C24 5.452 18.595 0 12 0zm2.11 22.383c-.676.14-1.393.21-2.11.21-.717 0-1.434-.07-2.11-.21v-3.29c0-.788.212-1.07.493-1.45.143-.163.23-.31.872-1.279l-1.083-.169c-2.785-.407-3.881-1.856-4.317-2.981-.563-1.505-.268-3.39.745-4.584.155-.183.281-.493.169-.816-.211-.647-.183-1.673-.042-2.067.745.106 1.512.64 2.151 1.026.295.172.45.127.59.141.515-.107 1.316-.366 2.546-.366.76 0 1.561.113 2.349.338.14-.003.367.116.759-.113.668-.407 1.409-.923 2.151-1.026.141.394.17 1.42-.042 2.067-.112.323.014.633.17.816 1.012 1.195 1.307 3.08.744 4.584-.436 1.125-1.532 2.574-4.317 2.981l-1.083.17c.664 1 .734 1.12.872 1.279.281.38.492.66.492 1.448v3.29zm1.406-.408v-2.883c0-.801-.17-1.336-.394-1.73 2.137-.576 3.656-1.842 4.331-3.656.717-1.912.394-4.19-.802-5.765.212-.943.212-2.447-.295-3.15a1.098 1.098 0 0 0-.928-.479h-.014c-1.09.06-1.949.609-2.869 1.168a9.714 9.714 0 0 0-5.076 0C8.5 4.896 7.65 4.37 6.529 4.312c-.35 0-.66.17-.885.479-.506.703-.506 2.207-.295 3.15-1.196 1.575-1.52 3.867-.802 5.765.675 1.814 2.194 3.08 4.331 3.656-.174.306-.312.7-.367 1.233-.431.148-.806.197-1.154.095-.368-.109-.654-.354-.902-.772-.559-.939-1.51-1.705-2.593-1.605l.123 1.4c.502-.045 1.001.485 1.26.923.428.72 1.004 1.193 1.714 1.402.526.155 1.007.152 1.525.041v1.896c-4.092-1.434-7.078-5.344-7.078-9.928 0-5.822 4.772-10.64 10.594-10.64 5.822 0 10.594 4.818 10.594 10.64 0 4.584-2.986 8.494-7.078 9.928z"/>
</svg>
