<svg xmlns="http://www.w3.org/2000/svg" width="24" height="23" viewBox="0 0 24 23">
    <path fill="#BEBEBE" fill-rule="nonzero" d="M19.781 0a2.816 2.816 0 0 1 2.813 2.813 2.816 2.816 0 0 1-2.813 2.812 2.815 2.815 0 0 1-2.81-2.73L13.897 1.83l-1.344 5.21c2.531.096 4.906.839 6.751 2.12A2.816 2.816 0 0 1 24 11.25c0 1.066-.59 2.011-1.498 2.487.06.338.092.68.092 1.028 0 2.11-1.138 4.08-3.203 5.545C17.4 21.723 14.777 22.5 12 22.5s-5.402-.777-7.39-2.189c-2.066-1.466-3.204-3.435-3.204-5.545 0-.347.032-.69.092-1.028A2.801 2.801 0 0 1 0 11.25a2.816 2.816 0 0 1 4.696-2.09c1.759-1.22 4.001-1.953 6.4-2.1l1.82-7.057 4.37 1.513A2.815 2.815 0 0 1 19.782 0zM12 8.438c-2.488 0-4.824.685-6.577 1.93-1.683 1.194-2.61 2.756-2.61 4.398s.927 3.204 2.61 4.398c1.753 1.244 4.09 1.93 6.577 1.93 2.488 0 4.824-.686 6.577-1.93 1.683-1.194 2.61-2.756 2.61-4.398s-.927-3.204-2.61-4.399c-1.753-1.244-4.09-1.93-6.577-1.93zm3.965 9.023l.602 1.27c-1.301.617-2.923.956-4.567.956-1.644 0-3.266-.339-4.567-.955l.602-1.271c1.117.529 2.525.82 3.965.82s2.848-.291 3.965-.82zm-8.23-6.211c1.162 0 2.109.946 2.109 2.11 0 1.162-.947 2.109-2.11 2.109a2.112 2.112 0 0 1-2.109-2.11c0-1.163.946-2.109 2.11-2.109zm8.53 0c1.164 0 2.11.946 2.11 2.11 0 1.162-.946 2.109-2.11 2.109a2.112 2.112 0 0 1-2.109-2.11c0-1.163.947-2.109 2.11-2.109zm-8.53 1.406a.704.704 0 0 0 0 1.406.704.704 0 0 0 0-1.406zm8.53 0a.704.704 0 0 0 0 1.406.704.704 0 0 0 0-1.406zm4.922-2.812c-.275 0-.539.08-.762.225.725.69 1.279 1.458 1.645 2.277a1.408 1.408 0 0 0-.883-2.502zm-18.375 0a1.408 1.408 0 0 0-.882 2.502c.366-.819.92-1.587 1.645-2.277a1.402 1.402 0 0 0-.763-.225zm16.97-8.438a1.408 1.408 0 0 0 0 2.813 1.408 1.408 0 0 0 0-2.813z"/>
</svg>
