<svg xmlns="http://www.w3.org/2000/svg" width="24" height="20" viewBox="0 0 24 20">
    <path fill="#BEBEBE" fill-rule="nonzero" d="M24 2.623c-1.51.07-1.477.064-1.647.079l.894-2.554s-2.791 1.027-3.499 1.21c-1.858-1.67-4.62-1.743-6.594-.53-1.617.994-2.485 2.701-2.196 4.697C7.811 5.088 5.16 3.596 3.066 1.08L2.404.286l-.495.909c-.625 1.148-.833 2.46-.585 3.696.102.507.275.99.515 1.443l-.568-.22-.067.949c-.069.964.252 2.09.858 3.01.171.26.39.544.67.825l-.294-.045.358 1.087c.47 1.429 1.448 2.534 2.717 3.149-1.267.538-2.29.88-3.973 1.434L0 17.03l1.422.778c.542.296 2.458 1.286 4.351 1.583 4.208.66 8.945.123 12.135-2.75 2.686-2.419 3.567-5.86 3.384-9.442-.027-.542.121-1.06.418-1.457.596-.795 2.286-3.112 2.29-3.118zM20.586 4.9c-.494.66-.741 1.502-.697 2.371.185 3.613-.798 6.414-2.922 8.326-2.48 2.234-6.481 3.111-10.976 2.406-.814-.127-1.656-.413-2.352-.699 1.41-.485 2.5-.918 4.26-1.75l2.456-1.163-2.712-.174c-1.299-.083-2.38-.712-3.045-1.734.353-.02.693-.078 1.032-.173l2.586-.72-2.608-.639A3.884 3.884 0 0 1 3.236 9.3a3.978 3.978 0 0 1-.514-1.134c.261.07.566.12 1.058.169l2.414.238L4.28 7.081c-1.378-1.074-1.93-2.69-1.525-4.242 4.3 4.461 9.35 4.126 9.858 4.244-.112-1.087-.114-1.09-.144-1.193-.65-2.3.776-3.47 1.42-3.865 1.343-.826 3.477-.95 4.954.41.32.294.751.41 1.155.31.363-.09.66-.186.951-.29l-.606 1.732h.774l-.532.712z"/>
</svg>
