<svg xmlns="http://www.w3.org/2000/svg" width="96" height="85" viewBox="0 0 96 85">
    <defs>
        <linearGradient id="a" x1="18.32%" x2="56.587%" y1="20.949%" y2="83.77%">
            <stop offset="0%" stop-color="#2966D1"/>
            <stop offset="100%" stop-color="#9ABDFB"/>
        </linearGradient>
    </defs>
    <g fill="none" fill-rule="evenodd">
        <path fill="url(#a)" d="M16.17 71.444c.973-1.764 5.504-3.8 9.871-1.224 4.367 2.575 6.598 11.329 3.814 14.207-2.48 2.17-8.728-2.391-10.464-4.186-3.894-3.97-4.195-7.033-3.222-8.797zm34.425-56.42C72.38 13.98 99.71 48.09 95.208 65.49c-4.781 13.901-37.162 12.32-47.764 9.92l-.315-.074C24.222 70.066 16.726 59.46 16.726 50.57c0-8.89 12.082-34.503 33.869-35.546z" opacity=".5" transform="rotate(180 55.7 50)"/>
        <path fill="#2C2F32" fill-rule="nonzero" d="M64.867 58.335a5.833 5.833 0 1 1 0 11.666 5.833 5.833 0 0 1 0-11.666zm-58.334 0a5.833 5.833 0 1 1 .001 11.666 5.833 5.833 0 0 1 0-11.666zm58.334 2.916a2.916 2.916 0 1 0 0 5.833 2.916 2.916 0 0 0 0-5.833zm-58.334 0a2.916 2.916 0 1 0 0 5.833 2.916 2.916 0 0 0 0-5.833zM36.117 18c11.275 0 20.416 9.14 20.416 20.413 0 11.158-8.953 20.225-20.068 20.41l-.348.004-.001 4.374h20.417v2.916H15.7v-2.916h17.5v-4.374a2.857 2.857 0 0 1 2.628-2.908l.228-.009h.06c9.665 0 17.5-7.833 17.5-17.497 0-9.663-7.835-17.497-17.5-17.497-9.554 0-17.321 7.657-17.496 17.169l-.003.328H15.7C15.7 27.14 24.84 18 36.117 18zm.053 22c1.583 0 3.107.738 4.278 2.064l.208.248 6.946 8.606h-3.317l-5.427-6.72c-.746-.855-1.644-1.282-2.695-1.282-.972 0-1.818.365-2.539 1.095l-.175.187-5.431 6.72H24.7l6.98-8.612c1.13-1.393 2.627-2.21 4.202-2.298L36.17 40zm-8.152-13l5.431 6.72c.758.855 1.662 1.282 2.714 1.282 1.051 0 1.95-.427 2.695-1.282L44.285 27h3.317l-6.946 8.606c-1.127 1.397-2.624 2.215-4.199 2.304l-.287.008c-1.68 0-3.292-.828-4.49-2.306L24.7 27h3.318zm-5.443 29.877v2.916h-2.917v-2.916h2.917zM18.2 52.503v2.916h-2.917v-2.916H18.2zm5.833-40.827h.08c.8-7.204 7.29-12.394 14.494-11.595a13.124 13.124 0 0 1 11.628 11.92 13.138 13.138 0 0 1 10.209 11.665c7.069 1.603 11.5 8.633 9.896 15.7a13.125 13.125 0 0 1-12.45 10.216l-.315.005V46.67c5.638-.039 10.177-4.64 10.138-10.277a10.207 10.207 0 0 0-8.865-10.048 1.458 1.458 0 0 1-1.267-1.312l-.006-.136v-.159a10.198 10.198 0 0 0-8.937-10.06 1.458 1.458 0 0 1-1.265-1.31l-.006-.136v-.159c-.017-5.637-4.6-10.193-10.238-10.177-5.638.017-10.195 4.6-10.179 10.237 0 .758-.578 1.38-1.318 1.451l-.14.007h-1.459c-5.541.006-10.05 4.422-10.204 9.926l-.004.28a1.557 1.557 0 0 1-1.273 1.548c-5.59.742-9.518 5.873-8.777 11.46a10.208 10.208 0 0 0 9.773 8.859l.277.005v2.917c-7.249-.02-13.11-5.91-13.09-13.158A13.124 13.124 0 0 1 10.97 23.663c.587-6.67 6.09-11.813 12.75-11.983l.394-.004h-.08zM21.117 46.67v2.916H18.2V46.67h2.917zM18.2 40.838v2.916h-2.917v-2.916H18.2zM37.158 5.843V8.76a4.375 4.375 0 0 0-4.37 4.162l-.005.212h-2.916a7.3 7.3 0 0 1 7.05-7.286l.241-.005z"/>
    </g>
</svg>
