<svg xmlns="http://www.w3.org/2000/svg" width="95" height="85" viewBox="0 0 95 85">
    <defs>
        <linearGradient id="a" x1="18.32%" x2="56.587%" y1="20.949%" y2="83.77%">
            <stop offset="0%" stop-color="#2DBEE4" stop-opacity=".5"/>
            <stop offset="100%" stop-color="#12A8CF"/>
        </linearGradient>
    </defs>
    <g fill="none" fill-rule="evenodd">
        <path fill="url(#a)" d="M.47 71.444c.973-1.764 5.504-3.8 9.871-1.224 4.367 2.575 6.598 11.329 3.814 14.207-2.48 2.17-8.728-2.391-10.464-4.186-3.894-3.97-4.195-7.033-3.222-8.797zm34.425-56.42C56.68 13.98 84.01 48.09 79.508 65.49c-4.781 13.901-37.162 12.32-47.764 9.92l-.315-.074C8.522 70.066 1.026 59.46 1.026 50.57c0-8.89 12.082-34.503 33.869-35.546z" opacity=".5"/>
        <path fill="#2C2F32" fill-rule="nonzero" d="M45.417 29.167c11.276 0 20.416 9.14 20.416 20.416C65.821 60.854 56.687 69.988 45.417 70 34.14 70 25 60.86 25 49.583c0-11.276 9.14-20.416 20.417-20.416zM45.47 51c1.583 0 3.107.738 4.278 2.064l.208.248 6.946 8.606h-3.317l-5.427-6.72c-.746-.855-1.644-1.282-2.695-1.282-.972 0-1.818.365-2.539 1.095l-.175.187-5.431 6.72H34l6.98-8.612c1.13-1.393 2.627-2.21 4.202-2.298L45.47 51zm-8.152-13l5.431 6.72c.758.855 1.662 1.282 2.714 1.282 1.051 0 1.95-.427 2.695-1.282L53.585 38h3.317l-6.946 8.606c-1.127 1.397-2.624 2.215-4.199 2.304l-.287.008c-1.68 0-3.292-.828-4.49-2.306L34 38h3.318zm8.099-5.917c-9.665 0-17.5 7.835-17.5 17.5s7.835 17.5 17.5 17.5 17.5-7.835 17.5-17.5c-.01-9.66-7.84-17.49-17.5-17.5zm43.75 13.125v11.667a4.375 4.375 0 0 1-4.163 4.37l-.212.005h-17.5v-2.917h17.5c.758 0 1.38-.578 1.451-1.318l.007-.14V45.208h2.917zm-16.042-17.5h17.5a4.375 4.375 0 0 1 4.37 4.163l.005.212v5.834a4.375 4.375 0 0 1-4.163 4.37l-.212.005h-17.5a4.375 4.375 0 0 1-4.37-4.163l-.005-.212v-5.834a4.375 4.375 0 0 1 4.163-4.37l.212-.005h17.5-17.5zm17.5 2.917h-17.5c-.758 0-1.381.578-1.452 1.318l-.006.14v5.834c0 .758.578 1.38 1.318 1.451l.14.007h17.5c.758 0 1.381-.578 1.452-1.318l.006-.14v-5.834c0-.758-.578-1.38-1.318-1.451l-.14-.007zM77.5 33.542v2.916h-2.917v-2.916H77.5zM29.375 0h32.083a4.375 4.375 0 0 1 4.37 4.163l.005.212V8.75h18.959a4.375 4.375 0 0 1 4.37 4.163l.005.212v11.667H86.25V13.125c0-.758-.578-1.381-1.318-1.452l-.14-.006h-52.5V8.75h30.624V4.375c0-.758-.578-1.381-1.317-1.452l-.14-.006H29.374c-.758 0-1.381.578-1.452 1.318l-.006.14v29.167H25V4.375a4.375 4.375 0 0 1 4.163-4.37L29.375 0h32.083-32.083zm45.208 16.042h5.834c.758 0 1.38.578 1.451 1.318l.007.14v5.833h-2.917v-4.375h-4.375v-2.916h5.834-5.834z"/>
    </g>
</svg>
