<svg xmlns="http://www.w3.org/2000/svg" width="20" height="20" viewBox="0 0 20 20">
    <g fill="none" fill-rule="nonzero">
        <path fill="#FBBB00" d="M4.432 12.086l-.696 2.6-2.544.053A9.955 9.955 0 0 1 0 10a9.95 9.95 0 0 1 1.118-4.599l2.266.415.992 2.252A5.944 5.944 0 0 0 4.056 10c0 .734.132 1.437.376 2.086z"/>
        <path fill="#518EF8" d="M19.825 8.132a10.019 10.019 0 0 1-.044 3.956 9.998 9.998 0 0 1-3.52 5.71h-.001l-2.853-.146-.404-2.52a5.96 5.96 0 0 0 2.564-3.044H10.22V8.132h9.605z"/>
        <path fill="#28B446" d="M16.26 17.798A9.958 9.958 0 0 1 10 20a9.998 9.998 0 0 1-8.808-5.261l3.24-2.653a5.946 5.946 0 0 0 8.57 3.045l3.258 2.667z"/>
        <path fill="#F14336" d="M16.383 2.302l-3.24 2.652a5.948 5.948 0 0 0-8.767 3.114L1.12 5.401A9.998 9.998 0 0 1 10 0c2.426 0 4.651.864 6.383 2.302z"/>
    </g>
</svg>
