<svg xmlns="http://www.w3.org/2000/svg" width="95" height="85" viewBox="0 0 95 85">
    <defs>
        <linearGradient id="a" x1="56.587%" x2="18.32%" y1="83.77%" y2="20.949%">
            <stop offset="0%" stop-color="#2DBEE4" stop-opacity=".5"/>
            <stop offset="100%" stop-color="#12A8CF"/>
        </linearGradient>
    </defs>
    <g fill="none" fill-rule="evenodd">
        <path fill="url(#a)" d="M.47 71.444c.973-1.764 5.504-3.8 9.871-1.224 4.367 2.575 6.598 11.329 3.814 14.207-2.48 2.17-8.728-2.391-10.464-4.186-3.894-3.97-4.195-7.033-3.222-8.797zm34.425-56.42C56.68 13.98 84.01 48.09 79.508 65.49c-4.781 13.901-37.162 12.32-47.764 9.92l-.315-.074C8.522 70.066 1.026 59.46 1.026 50.57c0-8.89 12.082-34.503 33.869-35.546z" opacity=".5" transform="matrix(1 0 0 -1 0 100)"/>
        <path fill="#2C2F32" fill-rule="nonzero" d="M54.167 0h11.666a2.917 2.917 0 0 1 2.912 2.745l.005.172v5.807c1.041.344 2.061.75 3.054 1.215l.592.287L76.5 6.125a2.987 2.987 0 0 1 3.976-.132l.148.132 8.251 8.251a2.917 2.917 0 0 1 .132 3.985l-.132.14-4.098 4.099c.49.981.92 1.99 1.288 3.023l.214.623h5.804a2.917 2.917 0 0 1 2.912 2.745l.005.171V40.83a2.917 2.917 0 0 1-2.745 2.912l-.172.005h-5.807a27.555 27.555 0 0 1-1.216 3.053l-.286.593 4.1 4.097a2.917 2.917 0 0 1 .133 3.985l-.134.143-8.25 8.258a2.987 2.987 0 0 1-3.977.132l-.148-.132-4.102-4.1c-.982.488-1.992.919-3.024 1.288l-.622.215v5.805a2.917 2.917 0 0 1-2.745 2.912l-.172.005H54.167a2.917 2.917 0 0 1-2.912-2.745l-.005-.172v-5.805a27.654 27.654 0 0 1-3.054-1.217l-.592-.287-4.104 4.101a2.985 2.985 0 0 1-3.976.132l-.148-.132-8.251-8.251a2.917 2.917 0 0 1-.132-3.985l.131-.14 4.102-4.103a27.54 27.54 0 0 1-1.288-3.024l-.214-.622h-5.807a2.917 2.917 0 0 1-2.912-2.745L25 40.833V29.167a2.917 2.917 0 0 1 2.745-2.912l.172-.005h5.807c.344-1.041.75-2.061 1.215-3.054l.287-.592-4.101-4.104a2.917 2.917 0 0 1-.131-3.984l.131-.14 8.251-8.251a2.985 2.985 0 0 1 3.978-.132l.148.132 4.098 4.098a27.474 27.474 0 0 1 3.027-1.286l.623-.213V2.917A2.917 2.917 0 0 1 53.995.005L54.167 0h11.666-11.666zm11.666 2.917H54.166v6.882c0 .65-.43 1.221-1.054 1.401a24.743 24.743 0 0 0-5.08 2.092 1.458 1.458 0 0 1-1.624-.146l-.11-.1-4.86-4.857-8.25 8.25 4.858 4.853c.46.46.56 1.168.245 1.737a24.709 24.709 0 0 0-2.091 5.084c-.167.58-.672.992-1.264 1.047l-.138.007h-6.881v11.667h6.882c.65 0 1.221.43 1.401 1.054a24.777 24.777 0 0 0 2.092 5.08c.29.524.226 1.167-.146 1.624l-.1.11-4.857 4.86 8.25 8.25 4.853-4.858c.24-.24.556-.389.892-.42l.145-.007.147.007c.195.02.385.079.557.175a24.654 24.654 0 0 0 5.08 2.091c.58.167.992.672 1.047 1.264l.007.138v6.881h11.667v-6.881c0-.65.43-1.222 1.054-1.402a24.654 24.654 0 0 0 5.08-2.091 1.458 1.458 0 0 1 1.624.145l.11.1 4.86 4.858 8.25-8.25-4.858-4.854a1.458 1.458 0 0 1-.245-1.735 24.777 24.777 0 0 0 2.091-5.08c.165-.581.67-.996 1.263-1.053l.139-.007h6.881V29.167h-6.882c-.65 0-1.221-.43-1.401-1.055a24.706 24.706 0 0 0-2.092-5.08 1.458 1.458 0 0 1 .146-1.626l.1-.11 4.857-4.858-8.25-8.25-4.853 4.858a1.458 1.458 0 0 1-1.735.245 24.743 24.743 0 0 0-5.086-2.091 1.458 1.458 0 0 1-1.047-1.264l-.007-.138V2.917zm-4.375 56.875v2.916h-2.916v-2.916h2.916zM60 14.583c11.276 0 20.417 9.141 20.417 20.417C80.405 46.27 71.27 55.405 60 55.417c-11.276 0-20.417-9.141-20.417-20.417 0-11.276 9.141-20.417 20.417-20.417zm0 2.917c-9.665 0-17.5 7.835-17.5 17.5S50.335 52.5 60 52.5 77.5 44.665 77.5 35c-.01-9.66-7.84-17.49-17.5-17.5zM59.98 36c1.583 0 3.107.738 4.278 2.064l.208.248 6.946 8.606h-3.317l-5.427-6.72c-.746-.855-1.644-1.282-2.695-1.282-.972 0-1.818.365-2.539 1.095l-.175.187-5.431 6.72H48.51l6.98-8.612c1.13-1.393 2.627-2.21 4.202-2.298L59.98 36zm-8.152-13l5.431 6.72c.758.855 1.662 1.282 2.714 1.282 1.051 0 1.95-.427 2.695-1.282L68.095 23h3.317l-6.946 8.606c-1.127 1.397-2.624 2.215-4.199 2.304l-.287.008c-1.68 0-3.292-.828-4.49-2.306L48.51 23h3.318zm35.88 10.542v2.916h-2.916v-2.916h2.916zm-52.5 0v2.916h-2.916v-2.916h2.916zm26.25-26.25v2.916h-2.916V7.292h2.916z"/>
    </g>
</svg>
