<svg xmlns="http://www.w3.org/2000/svg" width="95" height="85" viewBox="0 0 95 85">
    <defs>
        <linearGradient id="a" x1="56.587%" x2="18.32%" y1="83.77%" y2="20.949%">
            <stop offset="0%" stop-color="#2DBEE4" stop-opacity=".5"/>
            <stop offset="100%" stop-color="#12A8CF"/>
        </linearGradient>
    </defs>
    <g fill="none" fill-rule="evenodd">
        <path fill="url(#a)" d="M.47 71.444c.973-1.764 5.504-3.8 9.871-1.224 4.367 2.575 6.598 11.329 3.814 14.207-2.48 2.17-8.728-2.391-10.464-4.186-3.894-3.97-4.195-7.033-3.222-8.797zm34.425-56.42C56.68 13.98 84.01 48.09 79.508 65.49c-4.781 13.901-37.162 12.32-47.764 9.92l-.315-.074C8.522 70.066 1.026 59.46 1.026 50.57c0-8.89 12.082-34.503 33.869-35.546z" opacity=".5"/>
        <path fill="#2C2F32" fill-rule="nonzero" d="M38.125 0v2.917h-5.833a4.375 4.375 0 0 0-4.37 4.163l-.005.212V61.25h4.375c.758 0 1.38.578 1.451 1.318l.007.14v4.375h8.75v-2.917h-4.375V61.25h43.75v2.917l-4.375-.001v2.917h8.75v-4.375c0-.758.578-1.38 1.318-1.451l.14-.007h4.375V7.292a4.375 4.375 0 0 0-4.163-4.37l-.212-.005h-5.833V0h5.833a7.3 7.3 0 0 1 7.288 7.051l.004.24v55.417c0 .758-.578 1.381-1.318 1.452l-.14.007h-4.375v4.375c0 .758-.579 1.38-1.318 1.451l-.14.007H76.041a1.459 1.459 0 0 1-1.452-1.318l-.007-.14v-4.375H45.417v4.375c0 .758-.579 1.38-1.318 1.451l-.14.007H32.291a1.459 1.459 0 0 1-1.452-1.318l-.007-.14v-4.375h-4.375a1.459 1.459 0 0 1-1.451-1.318l-.007-.14V7.291A7.3 7.3 0 0 1 32.051.004l.24-.004h5.834zm7.292 1.458h11.666c1.121 0 2.144.422 2.918 1.115a4.352 4.352 0 0 1 2.659-1.107l.257-.008h11.666a4.375 4.375 0 0 1 4.37 4.163l.005.212v8.75c0 .758-.578 1.381-1.318 1.452l-.14.007H64.375v-2.917h11.667V5.833c0-.758-.579-1.38-1.318-1.451l-.14-.007H62.916c-.758 0-1.381.578-1.452 1.318l-.006.14-.001 1.458h10.209v2.917H61.458v7.343c10.482.74 18.778 9.39 18.956 20.018l.003.348C80.405 49.187 71.27 58.32 60 58.333c-11.276 0-20.417-9.14-20.417-20.416 0-10.786 8.363-19.618 18.958-20.366v-7.343H48.333V7.292l10.208-.001V5.833c0-.758-.578-1.38-1.317-1.451l-.14-.007H45.417c-.758 0-1.381.578-1.452 1.318l-.006.14v7.292h11.666v2.917H42.5a1.459 1.459 0 0 1-1.452-1.318l-.006-.14v-8.75a4.375 4.375 0 0 1 4.163-4.37l.212-.006h11.666-11.666zm36.458 5.834h1.458a4.375 4.375 0 0 1 4.37 4.163l.005.212V52.5a4.375 4.375 0 0 1-4.163 4.37l-.212.005H77.5v-2.917h5.833c.758 0 1.381-.578 1.452-1.318l.007-.14V11.667c0-.758-.579-1.381-1.318-1.452l-.14-.007h-1.459V7.292h1.458-1.458zm-43.75 0v2.916h-1.458c-.758 0-1.381.579-1.452 1.318l-.007.14V52.5c0 .758.579 1.381 1.318 1.452l.14.006H42.5v2.917h-5.833a4.375 4.375 0 0 1-4.37-4.163l-.005-.212V11.667a4.375 4.375 0 0 1 4.163-4.37l.212-.005h1.458zM60 20.417c-9.665 0-17.5 7.835-17.5 17.5s7.835 17.5 17.5 17.5 17.5-7.835 17.5-17.5c-.01-9.661-7.84-17.49-17.5-17.5zM60.47 39c1.583 0 3.107.738 4.278 2.064l.208.248 6.946 8.606h-3.317l-5.427-6.72c-.746-.855-1.644-1.282-2.695-1.282-.972 0-1.818.365-2.539 1.095l-.175.187-5.431 6.72H49l6.98-8.612c1.13-1.393 2.627-2.21 4.202-2.298L60.47 39zm-8.152-13l5.431 6.72c.758.855 1.662 1.282 2.714 1.282 1.051 0 1.95-.427 2.695-1.282L68.585 26h3.317l-6.946 8.606c-1.127 1.397-2.624 2.215-4.199 2.304l-.287.008c-1.68 0-3.292-.828-4.49-2.306L49 26h3.318z"/>
    </g>
</svg>
