<svg xmlns="http://www.w3.org/2000/svg" width="190" height="25" viewBox="0 0 190 25">
    <g fill="none" fill-rule="nonzero">
        <path fill="#46C4FA" d="M23.148 25h6.03L37.5 0h-5.325l-5.994 19.214-3.594-11.45L20 15.505z"/>
        <path fill="#2C2F32" d="M8.236 25h5.993L22.5 0h-5.292L11.25 19.214 5.257 0H0zM48.306 0l8.36 25h-5.098l-1.427-4.5h-.007L45.417 5.679 40.67 20.5h-.013L39.231 25h-5.064l8.327-25zM159.972 0l8.361 25h-5.098l-1.427-4.5h-.007l-4.718-14.821-4.746 14.821h-.012l-1.427 4.5h-5.065l8.327-25zM63.16 20.286V0h-4.827v25H72.5v-4.714zM79.827 20.286V0H75v25h14.167v-4.714zM96.447 20.383v-5.491h10.22v-4.547h-15V25h15v-4.617zM106.667 4.31V0h-15v4.31zM127.5 0H110v4.714h6.388V25h4.69V4.714h6.422zM130 0h9.135c4.725 0 8.365 3.714 8.365 8.393 0 4.583-3.493 8.24-8.077 8.388l-.288.005h-4.305V25H130V12.179h9.135c2.065 0 3.57-1.643 3.57-3.786 0-2.104-1.403-3.674-3.358-3.78l-.212-.006H130V0zM185.34 0H190v25h-3.545L176.326 9.714V25h-4.66V0h3.546l10.129 15.25z"/>
    </g>
</svg>
