<?xml version="1.0" encoding="UTF-8" standalone="no"?>
<svg
   xmlns:dc="http://purl.org/dc/elements/1.1/"
   xmlns:cc="http://creativecommons.org/ns#"
   xmlns:rdf="http://www.w3.org/1999/02/22-rdf-syntax-ns#"
   xmlns:svg="http://www.w3.org/2000/svg"
   xmlns="http://www.w3.org/2000/svg"
   xmlns:sodipodi="http://sodipodi.sourceforge.net/DTD/sodipodi-0.dtd"
   xmlns:inkscape="http://www.inkscape.org/namespaces/inkscape"
   viewBox="0 0 48 48"
   width="18px"
   height="18px"
   id="svg4136"
   version="1.1"
   stroke="transparent"
   	 fill="none"
   inkscape:version="0.91 r13725"
   sodipodi:docname="refreshbutton.svg">
  <metadata
     id="metadata4152">
    <rdf:RDF>
      <cc:Work
         rdf:about="">
        <dc:format>image/svg+xml</dc:format>
        <dc:type
           rdf:resource="http://purl.org/dc/dcmitype/StillImage" />
      </cc:Work>
    </rdf:RDF>
  </metadata>
  <defs
     id="defs4150" />
  <sodipodi:namedview
     pagecolor="none"
     bordercolor="#666666"
     borderopacity="1"
     objecttolerance="10"
     gridtolerance="10"
     guidetolerance="10"
     inkscape:pageopacity="0"
     inkscape:pageshadow="2"
     inkscape:window-width="1920"
     inkscape:window-height="1017"
     id="namedview4148"
     showgrid="false"
     inkscape:zoom="47.111111"
     inkscape:cx="7.567217"
     inkscape:cy="9"
     inkscape:window-x="-8"
     inkscape:window-y="-8"
     inkscape:window-maximized="1"
     inkscape:current-layer="svg4136" />
  <path
     d="M13,13c0-3.3,2.7-6,6-6h10c3.3,0,6,2.7,6,6h4c0-5.5-4.5-10-10-10H19C13.5,3,9,7.5,9,13v11.2h4V13z"
     id="path4138"
     style="fill:#1565c0;fill-opacity:1" />
  <path
     fill="#1565C0"
     d="M4.6 22L11 30.4 17.4 22z"
     id="path4140" />
  <g
     id="g4142">
    <path
       fill="#1565C0"
       d="M35,35c0,3.3-2.7,6-6,6H19c-3.3,0-6-2.7-6-6H9c0,5.5,4.5,10,10,10h10c5.5,0,10-4.5,10-10V23h-4V35z"
       id="path4144" />
    <path
       fill="#1565C0"
       d="M30.6 26L37 17.6 43.4 26z"
       id="path4146"
       style="fill:#1565c0;fill-opacity:1" />
  </g>
</svg>
