<svg xmlns="http://www.w3.org/2000/svg" width="106" height="85" viewBox="0 0 106 85">
    <defs>
        <linearGradient id="a" x1="18.32%" x2="56.587%" y1="20.949%" y2="83.77%">
            <stop offset="0%" stop-color="#2DBEE4" stop-opacity=".5"/>
            <stop offset="100%" stop-color="#12A8CF"/>
        </linearGradient>
    </defs>
    <g fill="none" fill-rule="evenodd">
        <path fill="url(#a)" d="M1.17 71.444c.973-1.764 5.504-3.8 9.871-1.224 4.367 2.575 6.598 11.329 3.814 14.207-2.48 2.17-8.728-2.391-10.464-4.186-3.894-3.97-4.195-7.033-3.222-8.797zm34.425-56.42C57.38 13.98 84.71 48.09 80.208 65.49c-4.781 13.901-37.162 12.32-47.764 9.92l-.315-.074C9.222 70.066 1.726 59.46 1.726 50.57c0-8.89 12.082-34.503 33.869-35.546z" opacity=".5"/>
        <path fill="#2C2F32" fill-rule="nonzero" d="M82.367 23.333c12.886 0 23.333 10.447 23.333 23.334 0 12.757-10.239 23.124-22.948 23.33l-.385.003H48.825v-2.917h33.542c11.275 0 20.416-9.14 20.416-20.416S93.643 26.25 82.367 26.25c-11.16 0-20.228 8.953-20.414 20.069l-.003.348h-2.917c0-12.887 10.447-23.334 23.334-23.334zm-36.459 43.75V70h-2.916v-2.917h2.916zM65.7 59.792v2.916H44.45v-2.916H65.7zm-24.167 0v2.916h-2.916v-2.916h2.916zm40.688-11.71c1.728 0 3.39.806 4.669 2.253l.228.27L94.7 60h-3.621l-5.925-7.335c-.813-.934-1.794-1.4-2.942-1.4-1.06 0-1.984.398-2.77 1.195l-.192.205L73.321 60H69.7l7.62-9.4c1.232-1.522 2.867-2.412 4.587-2.51l.314-.008zM65.7 52.5v2.917H48.825V52.5H65.7zm-19.792 0v2.917h-2.916V52.5h2.916zM40.075 0h61.25a4.375 4.375 0 0 1 4.37 4.163l.005.212v26.25h-2.917V4.375c0-.758-.578-1.381-1.318-1.452l-.14-.006h-61.25c-.758 0-1.381.578-1.452 1.318l-.006.14v40.833c0 .758.578 1.381 1.318 1.452l.14.007H53.2v2.916H40.075a4.375 4.375 0 0 1-4.37-4.163l-.005-.212V4.375a4.375 4.375 0 0 1 4.163-4.37L40.075 0h61.25-61.25zm33.246 34l5.93 7.335c.826.934 1.814 1.4 2.961 1.4 1.148 0 2.129-.466 2.942-1.4L91.08 34H94.7l-7.582 9.395c-1.23 1.524-2.865 2.417-4.584 2.514l-.314.009c-1.833 0-3.593-.904-4.9-2.518L69.7 34h3.621zm-27.413 2.458v2.917h-2.916v-2.917h2.916zm5.834 0v2.917h-2.917v-2.917h2.917zm14.583-13.125v2.917H45.908v2.917h13.125v2.916H44.45a1.459 1.459 0 0 1-1.452-1.318l-.006-.14v-5.833c0-.758.578-1.381 1.318-1.452l.14-.007h21.875zm26.25-17.5a5.833 5.833 0 1 1-4.376 9.691 5.833 5.833 0 1 1 .002-7.715 5.814 5.814 0 0 1 4.374-1.976zM44.45 7.292h8.75c.758 0 1.381.578 1.452 1.318l.006.14v5.833c0 .758-.578 1.381-1.318 1.452l-.14.007h-8.75a1.459 1.459 0 0 1-1.452-1.318l-.006-.14V8.75c0-.758.578-1.381 1.318-1.452l.14-.006h8.75-8.75zM83.825 8.75a2.917 2.917 0 1 0 0 5.833 2.917 2.917 0 0 0 0-5.833zm8.75 0a2.917 2.917 0 1 0 0 5.833 2.917 2.917 0 0 0 0-5.833zm-40.833 1.458h-5.834v2.917h5.834v-2.917z"/>
    </g>
</svg>
