<svg xmlns="http://www.w3.org/2000/svg" width="24" height="15" viewBox="0 0 24 15">
    <path fill="#BEBEBF" fill-rule="nonzero" d="M12.16.2c4.105 0 8.018 2.27 11.642 6.742.223.28.255.66.094.97l-.096.148c-.194.26-1.379 1.798-3.299 3.34-1.22.977-2.488 1.759-3.766 2.324-1.626.712-3.272 1.076-4.898 1.076-4.105 0-8.023-2.265-11.643-6.742A.895.895 0 0 1 .17 6.977l.3-.385A20.726 20.726 0 0 1 3.496 3.6c1.22-.978 2.488-1.76 3.766-2.325C8.888.564 10.534.2 12.16.2zm-.005 1.774c-3.135 0-5.819 1.622-7.523 2.983a19.408 19.408 0 0 0-2.616 2.536c3.135 3.675 6.436 5.538 9.82 5.538 3.135 0 5.82-1.622 7.524-2.983a19.111 19.111 0 0 0 2.616-2.536c-3.135-3.676-6.436-5.538-9.82-5.538zm-.162 1.38a.886.886 0 0 1 0 1.77 2.376 2.376 0 0 0-2.37 2.378 2.376 2.376 0 0 0 2.37 2.379 2.376 2.376 0 0 0 2.371-2.379c0-.486.397-.884.882-.884s.881.398.881.884c0 2.286-1.851 4.148-4.134 4.148-2.282 0-4.133-1.862-4.133-4.148 0-2.285 1.851-4.147 4.133-4.147z"/>
</svg>
