<?xml version="1.0" encoding="UTF-8" standalone="no"?>
<svg
   xmlns:dc="http://purl.org/dc/elements/1.1/"
   xmlns:cc="http://creativecommons.org/ns#"
   xmlns:rdf="http://www.w3.org/1999/02/22-rdf-syntax-ns#"
   xmlns:svg="http://www.w3.org/2000/svg"
   xmlns="http://www.w3.org/2000/svg"
   xmlns:sodipodi="http://sodipodi.sourceforge.net/DTD/sodipodi-0.dtd"
   xmlns:inkscape="http://www.inkscape.org/namespaces/inkscape"
   width="95.000656"
   height="84.998848"
   viewBox="0 0 95.000656 84.998848"
   version="1.1"
   id="svg3739"
   sodipodi:docname="swap.svg"
   inkscape:version="0.92.2 (5c3e80d, 2017-08-06)">
  <metadata
     id="metadata3743">
    <rdf:RDF>
      <cc:Work
         rdf:about="">
        <dc:format>image/svg+xml</dc:format>
        <dc:type
           rdf:resource="http://purl.org/dc/dcmitype/StillImage" />
      </cc:Work>
    </rdf:RDF>
  </metadata>
  <sodipodi:namedview
     pagecolor="#ffffff"
     bordercolor="#666666"
     borderopacity="1"
     objecttolerance="10"
     gridtolerance="10"
     guidetolerance="10"
     inkscape:pageopacity="0"
     inkscape:pageshadow="2"
     inkscape:window-width="1440"
     inkscape:window-height="837"
     id="namedview3741"
     showgrid="false"
     inkscape:zoom="2.38"
     inkscape:cx="90.999654"
     inkscape:cy="53.571669"
     inkscape:window-x="-8"
     inkscape:window-y="-8"
     inkscape:window-maximized="1"
     inkscape:current-layer="svg3739" />
  <defs
     id="defs3727">
    <linearGradient
       id="a"
       x1="13.318666"
       x2="64.879301"
       y1="66.005232"
       y2="41.840178"
       gradientTransform="scale(1.0690449,0.93541444)"
       gradientUnits="userSpaceOnUse">
      <stop
         offset="0%"
         stop-color="#2DBEE4"
         stop-opacity=".5"
         id="stop3722" />
      <stop
         offset="100%"
         stop-color="#12A8CF"
         id="stop3724" />
    </linearGradient>
  </defs>
  <g
     id="g3737"
     style="fill:none;fill-rule:evenodd"
     transform="matrix(0.99999311,0,0,1.0000135,-3.4552302e-4,-0.00172774)">
    <path
       d="m 0.47,71.444 c 0.973,-1.764 5.504,-3.8 9.871,-1.224 4.367,2.575 6.598,11.329 3.814,14.207 -2.48,2.17 -8.728,-2.391 -10.464,-4.186 -3.894,-3.97 -4.195,-7.033 -3.222,-8.797 z M 34.895,15.024 C 56.68,13.98 84.01,48.09 79.508,65.49 74.727,79.391 42.346,77.81 31.744,75.41 L 31.429,75.336 C 8.522,70.066 1.026,59.46 1.026,50.57 c 0,-8.89 12.082,-34.503 33.869,-35.546 z"
       transform="rotate(180,40,50)"
       id="path3733"
       inkscape:connector-curvature="0"
       style="opacity:0.5;fill:url(#a)" />
    <path
       d="m 71.667,26.25 v -2.917 c 12.887,0 23.334,10.447 23.334,23.333 C 95,59.553 84.554,70 71.667,70 58.916,69.985 48.558,59.754 48.337,47.052 l -0.003,-0.386 h 2.917 c 0,11.276 9.14,20.417 20.416,20.417 11.276,0 20.417,-9.14 20.417,-20.417 0,-11.16 -8.954,-20.228 -20.069,-20.413 L 71.667,26.25 v -2.917 z m -44.78,28.135 5.832,-5.833 a 1.459,1.459 0 0 1 1.952,-0.1 l 0.11,0.1 5.834,5.833 -2.062,2.062 -3.345,-3.344 v 8.147 a 2.745,2.745 0 0 0 2.395,2.9 l 0.167,0.016 0.178,0.006 0.178,-0.005 H 51.25 v 2.916 H 38.126 A 5.67,5.67 0 0 1 32.292,61.581 L 32.29,61.416 32.292,61.25 v -8.147 l -3.344,3.344 -2.062,-2.062 5.833,-5.833 -5.833,5.833 z M 72.17,49 c 1.583,0 3.107,0.738 4.278,2.064 l 0.208,0.248 6.946,8.606 h -3.317 l -5.427,-6.72 c -0.746,-0.855 -1.644,-1.282 -2.695,-1.282 -0.972,0 -1.818,0.365 -2.539,1.095 l -0.175,0.187 -5.431,6.72 H 60.7 l 6.98,-8.612 c 1.13,-1.393 2.627,-2.21 4.202,-2.298 z m -8.152,-13 5.431,6.72 c 0.758,0.855 1.662,1.282 2.714,1.282 1.051,0 1.95,-0.427 2.695,-1.282 L 80.285,36 h 3.317 l -6.946,8.606 c -1.127,1.397 -2.624,2.215 -4.199,2.304 l -0.287,0.008 c -1.68,0 -3.292,-0.828 -4.49,-2.306 L 60.7,36 Z M 26.315,15.637 C 30.569,3.473 43.878,-2.939 56.043,1.315 a 23.333,23.333 0 0 1 15.06,16.904 l 0.09,0.414 -2.857,0.583 C 66.058,8.173 55.258,1.068 44.215,3.346 33.172,5.626 26.067,16.426 28.345,27.468 a 20.417,20.417 0 0 0 12.887,15.013 l 0.367,0.133 -0.962,2.752 C 28.473,41.11 22.06,27.802 26.315,15.637 Z m 27.852,23.738 v 2.916 H 51.251 V 39.375 Z M 49.792,10.208 v 2.917 h 1.458 a 5.834,5.834 0 0 1 5.83,5.61 l 0.004,0.223 h -2.917 a 2.917,2.917 0 0 0 -2.745,-2.912 l -0.171,-0.005 h -5.834 a 2.917,2.917 0 0 0 -0.171,5.829 l 0.171,0.005 h 5.834 a 5.833,5.833 0 0 1 0.223,11.662 l -0.223,0.004 h -1.459 v 2.917 h -2.916 v -2.917 h -1.459 a 5.834,5.834 0 0 1 -5.83,-5.61 L 39.584,27.708 H 42.5 a 2.917,2.917 0 0 0 2.746,2.912 l 0.171,0.005 h 5.833 a 2.917,2.917 0 0 0 0.172,-5.829 L 51.25,24.791 H 45.417 A 5.833,5.833 0 0 1 45.193,13.129 l 0.224,-0.004 h 1.458 V 10.208 Z M 60,33.541 v 2.917 h -2.916 v -2.917 z m 5.834,-7.291 v 2.916 H 62.917 V 26.25 Z M 68.75,2.916 h 13.125 a 5.67,5.67 0 0 1 5.833,5.502 L 87.71,8.584 87.708,8.75 v 8.146 l 3.344,-3.344 2.062,2.062 -5.833,5.834 a 1.458,1.458 0 0 1 -1.956,0.096 l -0.106,-0.096 -5.834,-5.834 2.062,-2.062 3.344,3.344 V 8.75 A 2.745,2.745 0 0 0 82.397,5.849 L 82.23,5.833 82.052,5.827 81.875,5.833 H 68.75 V 2.916 h 13.125 z"
       id="path3735"
       inkscape:connector-curvature="0"
       style="fill:#2c2f32;fill-rule:nonzero" />
  </g>
</svg>
