<svg xmlns="http://www.w3.org/2000/svg" width="95" height="85" viewBox="0 0 95 85">
    <defs>
        <linearGradient id="a" x1="18.32%" x2="56.587%" y1="20.949%" y2="83.77%">
            <stop offset="0%" stop-color="#2DBEE4" stop-opacity=".5"/>
            <stop offset="100%" stop-color="#12A8CF"/>
        </linearGradient>
    </defs>
    <g fill="none" fill-rule="evenodd">
        <path fill="url(#a)" d="M.47 71.444c.973-1.764 5.504-3.8 9.871-1.224 4.367 2.575 6.598 11.329 3.814 14.207-2.48 2.17-8.728-2.391-10.464-4.186-3.894-3.97-4.195-7.033-3.222-8.797zm34.425-56.42C56.68 13.98 84.01 48.09 79.508 65.49c-4.781 13.901-37.162 12.32-47.764 9.92l-.315-.074C8.522 70.066 1.026 59.46 1.026 50.57c0-8.89 12.082-34.503 33.869-35.546z" opacity=".5" transform="matrix(-1 0 0 1 80 0)"/>
        <path fill="#2C2F32" fill-rule="nonzero" d="M78.075 53.836l2.36 1.585c-2.057 3.144-4.729 5.868-7.866 8.205-2.654 1.977-5.49 3.569-8.327 4.814-.852.374-1.653.694-2.39.962l-.576.205-.393.132-.393.123-.478.138-.391-.116-.475-.154-.605-.211-.361-.133a41.606 41.606 0 0 1-2.38-.977c-2.825-1.261-5.65-2.857-8.294-4.822-2.838-2.109-5.296-4.522-7.26-7.26l-.363-.517 2.326-1.635c1.83 2.674 4.195 5.036 6.971 7.099 2.465 1.832 5.113 3.328 7.761 4.51.772.343 1.496.64 2.16.889l.39.144.536.187.535-.182.392-.14c.665-.244 1.39-.535 2.163-.874 2.653-1.165 5.306-2.654 7.775-4.493 2.714-2.022 5.034-4.343 6.848-6.98l.335-.499zm-4.372-7.225l2.107 1.798C71.89 53.152 66.1 55.89 60 55.885c-5.966.005-11.634-2.613-15.546-7.165l-.264-.313 2.107-1.796c6.351 7.678 17.635 8.679 25.203 2.235a18.012 18.012 0 0 0 1.863-1.836l.34-.399zm4.784-13.062h1.376c1.435-.031 2.632 1.082 2.744 2.515l.009.219v11.226h4.362c.567-1.627 2.096-2.792 3.894-2.792 2.28 0 4.128 1.875 4.128 4.188 0 2.313-1.848 4.188-4.128 4.188-1.797 0-3.326-1.165-3.893-2.791l-4.364-.001c-1.435.03-2.632-1.082-2.744-2.516l-.009-.218.001-11.226h-1.376v-2.792h1.376-1.376zm-41.102 5.584h2.752v8.376c.03 1.456-1.067 2.67-2.48 2.784l-.158.008-4.478.001c-.567 1.626-2.096 2.791-3.893 2.791-2.28 0-4.128-1.875-4.128-4.188 0-2.313 1.848-4.188 4.128-4.188 1.798 0 3.327 1.165 3.894 2.792h4.363v-8.376zm53.487 8.376c-.76 0-1.376.625-1.376 1.396 0 .77.616 1.396 1.376 1.396.76 0 1.376-.625 1.376-1.396 0-.771-.616-1.396-1.376-1.396zm-61.744 0c-.76 0-1.376.625-1.376 1.396 0 .77.616 1.396 1.376 1.396.76 0 1.376-.625 1.376-1.396 0-.771-.616-1.396-1.376-1.396zm30.89-12.13c1.495 0 2.932.706 4.037 1.974l.197.237 6.555 8.23h-3.13l-5.122-6.426c-.703-.818-1.551-1.226-2.543-1.226-.917 0-1.715.348-2.395 1.046l-.166.18-5.125 6.425h-3.13l6.586-8.234c1.066-1.333 2.48-2.113 3.965-2.198l.272-.008zm-7.692-12.43l5.125 6.425c.715.818 1.569 1.226 2.56 1.226.993 0 1.84-.408 2.544-1.226l5.121-6.425h3.13l-6.554 8.23c-1.063 1.335-2.476 2.117-3.962 2.202l-.272.008c-1.584 0-3.106-.792-4.236-2.206l-6.586-8.234h3.13zm-5.309 16.184v2.792h-2.752v-2.792h2.752zm28.718 0v2.792h-2.753v-2.792h2.753zm-46.607-8.377c1.798 0 3.327 1.166 3.894 2.792h2.987v2.792l-2.988.001c-.567 1.627-2.096 2.792-3.893 2.792-2.28 0-4.128-1.875-4.128-4.189 0-2.313 1.848-4.188 4.128-4.188zm61.744 0c2.28 0 4.128 1.875 4.128 4.188 0 2.314-1.848 4.189-4.128 4.189-1.797 0-3.326-1.165-3.893-2.792H83.99v-2.793h2.987c.567-1.626 2.096-2.792 3.894-2.792zm-61.744 2.792c-.76 0-1.376.625-1.376 1.396 0 .771.616 1.396 1.376 1.396.76 0 1.376-.625 1.376-1.396 0-.77-.616-1.396-1.376-1.396zm17.89 0v2.792h-2.753v-2.792h2.752zm28.717 0v2.792h-2.753v-2.792h2.753zM29.128 16.796c1.798 0 3.327 1.165 3.894 2.792h4.363c1.435-.03 2.632 1.082 2.744 2.516l.009.218-.001 11.226h1.376v2.792h-1.376c-1.435.031-2.632-1.082-2.744-2.515l-.008-.16V22.38l-4.364.001c-.567 1.626-2.096 2.791-3.893 2.791-2.28 0-4.128-1.875-4.128-4.188 0-2.313 1.848-4.188 4.128-4.188zm61.744 16.752c-.76 0-1.376.625-1.376 1.396 0 .771.616 1.396 1.376 1.396.76 0 1.376-.625 1.376-1.396 0-.77-.616-1.396-1.376-1.396zm0-16.752c2.28 0 4.128 1.875 4.128 4.188 0 2.313-1.848 4.188-4.128 4.188-1.798 0-3.327-1.165-3.894-2.792h-4.363v8.376h-2.752V22.38c-.032-1.51 1.15-2.76 2.638-2.792h4.477c.567-1.627 2.096-2.792 3.894-2.792zM75.735 27.964v2.792h-2.753v-2.792h2.753zm-28.718 0v2.792h-2.752v-2.792h2.752zm-.72-4.686l-2.107-1.796c7.33-8.858 20.35-10.011 29.08-2.576a20.779 20.779 0 0 1 2.148 2.116l.392.46-2.107 1.798c-6.351-7.677-17.635-8.678-25.203-2.235a18.012 18.012 0 0 0-1.863 1.836l-.34.4v-.003l-2.107-1.796 2.107 1.796zm44.575-3.69c-.76 0-1.376.625-1.376 1.396 0 .77.616 1.396 1.376 1.396.76 0 1.376-.625 1.376-1.396 0-.771-.616-1.396-1.376-1.396zm-61.744 0c-.76 0-1.376.625-1.376 1.396 0 .77.616 1.396 1.376 1.396.76 0 1.376-.625 1.376-1.396 0-.771-.616-1.396-1.376-1.396zM60.018 0l.582.266c5.223 2.386 12.713 4.219 22.452 5.476l1.762.222.25 1.362c.198 1.112.392 2.437.583 3.975l.064.52.115.988.115 1.04-2.814.31-.122-1.103c-.082-.715-.163-1.388-.245-2.02l-.124-.914-.123-.852-.113-.72c-9.507-1.245-16.962-3.042-22.382-5.41-5.263 2.3-12.444 4.06-21.56 5.3l-.785.105-.806 5.664-2.802-.41 1.114-7.83 1.808-.227C46.48 4.516 53.837 2.743 59.04.444l.396-.178.582-.266z"/>
    </g>
</svg>
