<svg xmlns="http://www.w3.org/2000/svg" width="17" height="14" viewBox="0 0 17 14">
    <path fill="#FFF" fill-rule="evenodd" d="M8.514 7.583c1.234 0 2.419.478 3.304 1.332l.026.026L17 14h-2.463l-4.028-3.95c-.553-.502-1.22-.754-2-.754-.773 0-1.439.247-1.998.74l-.017.014L2.463 14H0l5.181-5.062a4.769 4.769 0 0 1 3.295-1.355h.038zM2.463 0l4.031 3.95c.563.502 1.234.754 2.014.754.781 0 1.448-.252 2.001-.754L14.537 0H17l-5.156 5.059a4.755 4.755 0 0 1-3.293 1.358h-.037A4.77 4.77 0 0 1 5.18 5.062L0 0h2.463z"/>
</svg>
